<?xml version="1.0" standalone="no"?><!DOCTYPE svg PUBLIC "-//W3C//DTD SVG 1.1//EN" "http://www.w3.org/Graphics/SVG/1.1/DTD/svg11.dtd"><svg t="1703654719135" class="icon" viewBox="0 0 1024 1024" version="1.1" xmlns="http://www.w3.org/2000/svg" p-id="6411" width="128" height="128" xmlns:xlink="http://www.w3.org/1999/xlink"><path d="M513 959.4c-13.3 0-26.7-3.4-38.5-10.3L255 823c-11.1-6.4-14.9-20.6-8.6-31.7 6.4-11.1 20.6-15 31.7-8.6l219.4 126.2c9.5 5.5 21.3 5.5 30.8 0l219.4-126.2c11.1-6.4 25.3-2.6 31.7 8.6 6.4 11.1 2.6 25.3-8.6 31.7L551.5 949.1c-11.8 6.9-25.2 10.3-38.5 10.3zM849 472.1c-12.8 0-23.2-10.4-23.2-23.2v-68.5c0-1.2-0.7-2.4-1.8-3.1L514.9 199.7c-1.2-0.7-2.7-0.7-3.8 0L202 377.4c-1.1 0.6-1.8 1.8-1.8 3.1V449c0 12.8-10.4 23.2-23.2 23.2s-23.2-10.4-23.2-23.2v-68.5c0-17.8 9.6-34.4 25.1-43.3L488 159.5c15.5-8.9 34.7-8.9 50.1 0l309.1 177.7c15.5 8.9 25.1 25.5 25.1 43.3V449c-0.1 12.7-10.5 23.1-23.3 23.1z" fill="#143BFF" p-id="6412"></path><path d="M422.1 177.8a90.9 90.4 0 1 0 181.8 0 90.9 90.4 0 1 0-181.8 0Z" fill="#143BFF" p-id="6413"></path><path d="M513 291.5c-62.9 0-114.1-51-114.1-113.6 0-62.7 51.2-113.6 114.1-113.6s114.1 51 114.1 113.6c0 62.6-51.2 113.6-114.1 113.6z m0-180.9c-37.3 0-67.7 30.1-67.7 67.2S475.7 245 513 245s67.7-30.1 67.7-67.2c0-37-30.4-67.2-67.7-67.2z" fill="#143BFF" p-id="6414"></path><path d="M88.7 624.1a90.9 90.4 0 1 0 181.8 0 90.9 90.4 0 1 0-181.8 0Z" fill="#143BFF" p-id="6415"></path><path d="M179.6 737.7c-62.9 0-114.1-51-114.1-113.6 0-62.6 51.2-113.6 114.1-113.6s114.1 51 114.1 113.6c0 62.6-51.2 113.6-114.1 113.6z m0-180.8c-37.3 0-67.7 30.1-67.7 67.2s30.4 67.2 67.7 67.2 67.7-30.2 67.7-67.2c0-37.1-30.4-67.2-67.7-67.2z" fill="#143BFF" p-id="6416"></path><path d="M755.5 624.1a90.9 90.4 0 1 0 181.8 0 90.9 90.4 0 1 0-181.8 0Z" fill="#143BFF" p-id="6417"></path><path d="M846.4 737.7c-62.9 0-114.1-51-114.1-113.6 0-62.6 51.2-113.6 114.1-113.6 62.9 0 114.1 51 114.1 113.6 0.1 62.6-51.1 113.6-114.1 113.6z m0-180.8c-37.3 0-67.7 30.1-67.7 67.2s30.4 67.2 67.7 67.2c37.3 0 67.7-30.2 67.7-67.2 0.1-37.1-30.3-67.2-67.7-67.2z" fill="#143BFF" p-id="6418"></path></svg>